# xmcd
# 
# Track frame offsets:
#     150
#     15622
#     38222
#     50210
#     64625
#     78142
#     90055
#     103005
#     126285
#     138060
#     154635
# 
# Disc length: 2362
# 
# Revision: 1
# Processed by: cddbd v1.5.2PL0 Copyright (c) Steve Scherf et al.
# Submitted via: fre:ac v1.0.17
# 
DISCID=7d09380b
DTITLE=Duke Ellington - The Cosmic Scene
DYEAR=1958
DGENRE=Jazz
TTITLE0=Avalon
TTITLE1=Body And Soul
TTITLE2=Bass-Ment
TTITLE3=Early Autumn
TTITLE4=Jones
TTITLE5=Jones (alternate take)
TTITLE6=Perdido
TTITLE7=St. Louis Blues
TTITLE8=Spacemen
TTITLE9=Midmight Sun
TTITLE10=Take The "A" Train
EXTD=YEAR: 1958
EXTT0=
EXTT1=
EXTT2=
EXTT3=
EXTT4=
EXTT5=
EXTT6=
EXTT7=
EXTT8=
EXTT9=
EXTT10=
PLAYORDER=
